<?xml version="1.0" encoding="UTF-8"?>
<svg xmlns="http://www.w3.org/2000/svg" xmlns:xlink="http://www.w3.org/1999/xlink" width="283.465" height="170.079" viewBox="0 0 283.465 170.079">
<path fill-rule="nonzero" fill="rgb(100%, 100%, 100%)" fill-opacity="1" d="M 133.113281 101.40625 C 133.929688 101.40625 134.589844 100.746094 134.589844 99.953125 L 134.589844 93.625 L 140.738281 93.625 C 141.527344 93.625 142.1875 92.964844 142.1875 92.148438 C 142.1875 91.382812 141.527344 90.699219 140.738281 90.699219 L 134.589844 90.699219 L 134.589844 85.871094 L 141.742188 85.871094 C 142.503906 85.871094 143.191406 85.214844 143.191406 84.394531 C 143.191406 83.605469 142.503906 82.945312 141.742188 82.945312 L 133.113281 82.945312 C 132.296875 82.945312 131.660156 83.605469 131.660156 84.394531 L 131.660156 99.953125 C 131.660156 100.746094 132.296875 101.40625 133.113281 101.40625 "/>
<path fill-rule="nonzero" fill="rgb(100%, 100%, 100%)" fill-opacity="1" d="M 158.660156 100.484375 C 158.875 101.066406 159.425781 101.40625 160.007812 101.40625 C 160.191406 101.40625 160.378906 101.382812 160.511719 101.328125 C 161.273438 101.039062 161.644531 100.195312 161.378906 99.429688 L 155.546875 83.894531 C 155.3125 83.316406 154.761719 82.945312 154.152344 82.972656 C 153.570312 82.945312 152.992188 83.316406 152.753906 83.894531 L 146.925781 99.429688 C 146.664062 100.195312 147.03125 101.039062 147.796875 101.328125 C 147.953125 101.382812 148.113281 101.40625 148.300781 101.40625 C 148.878906 101.40625 149.429688 101.066406 149.667969 100.484375 L 150.960938 97.058594 L 157.371094 97.058594 Z M 152.015625 94.15625 L 154.152344 88.480469 L 156.285156 94.15625 Z M 152.015625 94.15625 "/>
<path fill-rule="nonzero" fill="rgb(100%, 100%, 100%)" fill-opacity="1" d="M 178.722656 98.324219 C 178.667969 98.058594 178.59375 97.558594 178.617188 96.765625 C 178.617188 95.660156 178.277344 94.683594 177.75 93.917969 C 177.484375 93.519531 177.164062 93.207031 176.824219 92.941406 C 178.089844 91.886719 178.882812 90.355469 178.882812 88.613281 C 178.882812 85.476562 176.375 82.945312 173.238281 82.945312 L 168.515625 82.945312 C 167.695312 82.945312 167.0625 83.578125 167.0625 84.394531 L 167.0625 99.953125 C 167.0625 100.746094 167.695312 101.40625 168.515625 101.40625 C 169.332031 101.40625 169.992188 100.746094 169.992188 99.953125 L 169.992188 94.230469 L 173.105469 94.230469 C 173.34375 94.285156 174.03125 94.496094 174.582031 94.867188 C 174.902344 95.078125 175.214844 95.339844 175.375 95.628906 C 175.558594 95.921875 175.664062 96.265625 175.691406 96.765625 C 175.691406 98.214844 175.875 99.167969 176.246094 99.933594 C 176.453125 100.300781 176.746094 100.644531 177.089844 100.851562 C 177.457031 101.089844 177.851562 101.144531 178.117188 101.144531 L 178.144531 101.144531 C 178.410156 101.144531 178.617188 101.089844 178.722656 101.066406 C 179.488281 100.800781 179.910156 99.980469 179.648438 99.21875 C 179.488281 98.769531 179.148438 98.453125 178.722656 98.324219 M 173.238281 91.308594 L 169.992188 91.308594 L 169.992188 85.871094 L 173.238281 85.871094 C 174.742188 85.871094 175.953125 87.085938 175.953125 88.613281 C 175.953125 90.089844 174.742188 91.308594 173.238281 91.308594 "/>
<path fill-rule="nonzero" fill="rgb(100%, 100%, 100%)" fill-opacity="1" d="M 200.765625 82.945312 L 200.738281 82.945312 C 200.261719 82.945312 199.839844 83.15625 199.546875 83.550781 L 194.304688 90.832031 L 189.054688 83.550781 C 188.789062 83.15625 188.316406 82.945312 187.890625 82.945312 L 187.816406 82.945312 C 187.023438 82.945312 186.363281 83.605469 186.363281 84.394531 L 186.363281 99.953125 C 186.363281 100.746094 187.023438 101.40625 187.816406 101.40625 C 188.628906 101.40625 189.289062 100.746094 189.289062 99.953125 L 189.289062 88.851562 L 193.058594 94.128906 C 193.351562 94.523438 193.800781 94.734375 194.277344 94.734375 L 194.328125 94.734375 C 194.804688 94.734375 195.222656 94.523438 195.515625 94.128906 L 199.3125 88.851562 L 199.3125 99.953125 C 199.3125 100.746094 199.945312 101.40625 200.765625 101.40625 C 201.554688 101.40625 202.242188 100.746094 202.242188 99.953125 L 202.242188 84.394531 C 202.242188 83.605469 201.554688 82.972656 200.765625 82.945312 "/>
<path fill-rule="nonzero" fill="rgb(100%, 100%, 100%)" fill-opacity="1" d="M 211.195312 101.40625 L 211.222656 101.382812 C 211.222656 101.382812 211.222656 101.40625 211.277344 101.40625 L 219.820312 101.40625 C 220.585938 101.40625 221.273438 100.746094 221.273438 99.953125 C 221.273438 99.140625 220.585938 98.480469 219.820312 98.480469 L 212.675781 98.480469 L 212.675781 93.625 L 218.820312 93.625 C 219.613281 93.625 220.273438 92.964844 220.273438 92.148438 C 220.273438 91.382812 219.613281 90.699219 218.820312 90.699219 L 212.675781 90.699219 L 212.675781 85.871094 L 219.820312 85.871094 C 220.585938 85.871094 221.273438 85.214844 221.273438 84.394531 C 221.273438 83.578125 220.585938 82.945312 219.820312 82.945312 L 211.195312 82.945312 C 210.378906 82.945312 209.746094 83.578125 209.746094 84.394531 L 209.746094 99.953125 C 209.746094 100.746094 210.378906 101.40625 211.195312 101.40625 "/>
<path fill-rule="nonzero" fill="rgb(100%, 100%, 100%)" fill-opacity="1" d="M 239.648438 98.324219 C 239.59375 98.058594 239.515625 97.558594 239.542969 96.765625 C 239.542969 95.660156 239.195312 94.683594 238.671875 93.917969 C 238.40625 93.519531 238.089844 93.207031 237.746094 92.941406 C 239.015625 91.886719 239.804688 90.355469 239.804688 88.613281 C 239.804688 85.476562 237.300781 82.945312 234.160156 82.945312 L 229.441406 82.945312 C 228.621094 82.945312 227.988281 83.578125 227.988281 84.394531 L 227.988281 99.953125 C 227.988281 100.746094 228.621094 101.40625 229.441406 101.40625 C 230.257812 101.40625 230.917969 100.746094 230.917969 99.953125 L 230.917969 94.230469 L 234.03125 94.230469 C 234.265625 94.285156 234.949219 94.496094 235.503906 94.867188 C 235.820312 95.078125 236.140625 95.339844 236.296875 95.628906 C 236.480469 95.921875 236.585938 96.265625 236.613281 96.765625 C 236.613281 98.214844 236.800781 99.167969 237.167969 99.933594 C 237.378906 100.300781 237.671875 100.644531 238.011719 100.851562 C 238.382812 101.089844 238.777344 101.144531 239.042969 101.144531 L 239.0625 101.144531 C 239.328125 101.144531 239.542969 101.089844 239.648438 101.066406 C 240.414062 100.800781 240.832031 99.980469 240.566406 99.21875 C 240.414062 98.769531 240.066406 98.453125 239.648438 98.324219 M 234.160156 91.308594 L 230.917969 91.308594 L 230.917969 85.871094 L 234.160156 85.871094 C 235.664062 85.871094 236.878906 87.085938 236.878906 88.613281 C 236.878906 90.089844 235.664062 91.308594 234.160156 91.308594 "/>
<path fill-rule="nonzero" fill="rgb(100%, 100%, 100%)" fill-opacity="1" d="M 246.917969 98.742188 C 248.421875 99.933594 250.820312 101.351562 253.667969 101.382812 C 255.542969 101.382812 257.253906 100.824219 258.550781 99.878906 C 259.867188 98.929688 260.816406 97.476562 260.816406 95.789062 C 260.816406 94.96875 260.578125 94.179688 260.183594 93.546875 C 259.574219 92.574219 258.625 91.886719 257.546875 91.359375 C 256.488281 90.855469 255.25 90.515625 253.90625 90.25 L 253.851562 90.25 C 252.429688 89.984375 251.242188 89.566406 250.558594 89.09375 C 250.214844 88.851562 249.972656 88.613281 249.84375 88.40625 C 249.714844 88.195312 249.660156 87.980469 249.660156 87.667969 C 249.660156 87.109375 249.953125 86.53125 250.664062 86.003906 C 251.371094 85.476562 252.429688 85.105469 253.613281 85.105469 C 255.222656 85.105469 256.515625 85.898438 257.863281 86.796875 C 258.496094 87.21875 259.335938 87.03125 259.734375 86.398438 C 260.15625 85.792969 259.972656 84.949219 259.367188 84.527344 C 258.019531 83.65625 256.148438 82.417969 253.613281 82.417969 C 251.902344 82.417969 250.292969 82.917969 249.054688 83.816406 C 247.84375 84.714844 246.945312 86.085938 246.945312 87.667969 C 246.945312 88.460938 247.152344 89.199219 247.550781 89.828125 C 248.128906 90.75 249 91.410156 250 91.886719 C 251.003906 92.359375 252.164062 92.679688 253.40625 92.914062 L 253.460938 92.914062 C 255.015625 93.207031 256.308594 93.652344 257.074219 94.15625 C 257.464844 94.417969 257.703125 94.683594 257.863281 94.945312 C 258.019531 95.207031 258.097656 95.449219 258.097656 95.789062 C 258.097656 96.449219 257.757812 97.109375 256.964844 97.691406 C 256.175781 98.269531 254.984375 98.664062 253.667969 98.664062 C 251.796875 98.691406 249.792969 97.582031 248.628906 96.632812 C 248.050781 96.160156 247.179688 96.238281 246.707031 96.820312 C 246.257812 97.398438 246.339844 98.269531 246.917969 98.742188 "/>
<path fill-rule="nonzero" fill="rgb(100%, 100%, 100%)" fill-opacity="1" d="M 133.140625 126.933594 L 136.3125 126.933594 C 141.496094 126.933594 145.6875 122.714844 145.6875 117.503906 C 145.6875 112.34375 141.496094 108.125 136.3125 108.125 L 133.140625 108.125 C 132.304688 108.125 131.660156 108.769531 131.660156 109.605469 L 131.660156 125.453125 C 131.660156 126.261719 132.304688 126.933594 133.140625 126.933594 M 134.644531 111.109375 L 136.3125 111.109375 C 139.859375 111.109375 142.707031 113.984375 142.707031 117.503906 C 142.707031 121.074219 139.859375 123.921875 136.3125 123.949219 L 134.644531 123.949219 Z M 134.644531 111.109375 "/>
<path fill-rule="nonzero" fill="rgb(100%, 100%, 100%)" fill-opacity="1" d="M 163.15625 125.992188 C 163.371094 126.585938 163.933594 126.933594 164.527344 126.933594 C 164.714844 126.933594 164.898438 126.894531 165.035156 126.847656 C 165.8125 126.558594 166.191406 125.695312 165.921875 124.914062 L 159.984375 109.09375 C 159.742188 108.5 159.175781 108.125 158.558594 108.152344 C 157.96875 108.109375 157.378906 108.5 157.136719 109.09375 L 151.203125 124.914062 C 150.933594 125.695312 151.304688 126.554688 152.085938 126.847656 C 152.246094 126.90625 152.410156 126.933594 152.59375 126.933594 C 153.1875 126.933594 153.753906 126.585938 153.992188 125.992188 L 155.3125 122.5 L 161.839844 122.5 Z M 156.382812 119.542969 L 158.558594 113.765625 L 160.738281 119.542969 Z M 156.382812 119.542969 "/>
<path fill-rule="nonzero" fill="rgb(100%, 100%, 100%)" fill-opacity="1" d="M 184.46875 109.605469 C 184.46875 108.769531 183.800781 108.125 182.992188 108.125 L 171.519531 108.125 C 170.6875 108.125 170.042969 108.769531 170.042969 109.605469 C 170.042969 110.410156 170.6875 111.109375 171.519531 111.109375 L 175.765625 111.109375 L 175.765625 125.453125 C 175.765625 126.289062 176.441406 126.933594 177.242188 126.933594 C 178.078125 126.933594 178.722656 126.289062 178.722656 125.453125 L 178.722656 111.109375 L 182.992188 111.109375 C 183.800781 111.109375 184.46875 110.410156 184.46875 109.605469 "/>
<path fill-rule="nonzero" fill="rgb(100%, 100%, 100%)" fill-opacity="1" d="M 199.933594 125.992188 C 200.144531 126.585938 200.710938 126.933594 201.300781 126.933594 C 201.492188 126.933594 201.679688 126.894531 201.8125 126.847656 C 202.589844 126.558594 202.96875 125.695312 202.699219 124.914062 L 196.761719 109.09375 C 196.519531 108.5 195.953125 108.125 195.335938 108.152344 C 194.746094 108.109375 194.15625 108.5 193.914062 109.09375 L 187.972656 124.914062 C 187.707031 125.695312 188.082031 126.554688 188.863281 126.847656 C 189.023438 126.90625 189.183594 126.933594 189.371094 126.933594 C 189.964844 126.933594 190.527344 126.585938 190.773438 125.992188 L 192.085938 122.5 L 198.617188 122.5 Z M 193.160156 119.542969 L 195.335938 113.765625 L 197.511719 119.542969 Z M 193.160156 119.542969 "/>
<path fill-rule="nonzero" fill="rgb(100%, 100%, 100%)" fill-opacity="1" d="M 211.832031 126.933594 L 220.617188 126.933594 C 221.398438 126.933594 222.097656 126.261719 222.097656 125.453125 C 222.097656 124.621094 221.398438 123.949219 220.617188 123.949219 L 213.335938 123.949219 L 213.335938 109.605469 C 213.335938 108.796875 212.667969 108.125 211.832031 108.125 C 211.003906 108.125 210.355469 108.796875 210.355469 109.605469 L 210.355469 125.453125 C 210.355469 126.261719 211.003906 126.933594 211.832031 126.933594 "/>
<path fill-rule="nonzero" fill="rgb(100%, 100%, 100%)" fill-opacity="1" d="M 241.03125 125.992188 C 241.246094 126.585938 241.808594 126.933594 242.398438 126.933594 C 242.589844 126.933594 242.773438 126.894531 242.910156 126.847656 C 243.6875 126.558594 244.066406 125.695312 243.796875 124.914062 L 237.859375 109.09375 C 237.621094 108.5 237.050781 108.125 236.433594 108.152344 C 235.84375 108.109375 235.253906 108.5 235.011719 109.09375 L 229.074219 124.914062 C 228.804688 125.695312 229.179688 126.554688 229.960938 126.847656 C 230.121094 126.90625 230.285156 126.933594 230.472656 126.933594 C 231.0625 126.933594 231.628906 126.585938 231.871094 125.992188 L 233.1875 122.5 L 239.714844 122.5 Z M 234.257812 119.542969 L 236.433594 113.765625 L 238.609375 119.542969 Z M 234.257812 119.542969 "/>
<path fill-rule="nonzero" fill="rgb(100%, 100%, 100%)" fill-opacity="1" d="M 251.765625 126.933594 C 251.792969 126.933594 251.792969 126.894531 251.84375 126.894531 C 251.84375 126.894531 251.84375 126.933594 251.875 126.933594 L 256.625 126.933594 C 259.796875 126.933594 262.375 124.355469 262.375 121.15625 C 262.375 119.113281 261.277344 117.3125 259.664062 116.292969 C 260.308594 115.433594 260.6875 114.386719 260.6875 113.230469 C 260.6875 110.410156 258.402344 108.125 255.582031 108.125 L 251.765625 108.125 C 250.957031 108.125 250.285156 108.769531 250.285156 109.605469 L 250.285156 125.453125 C 250.285156 126.261719 250.957031 126.933594 251.765625 126.933594 M 253.269531 111.109375 L 255.582031 111.109375 C 256.761719 111.109375 257.703125 112.050781 257.703125 113.230469 C 257.703125 114.410156 256.761719 115.40625 255.582031 115.40625 L 253.269531 115.40625 Z M 253.269531 118.390625 L 256.625 118.390625 C 258.15625 118.429688 259.394531 119.625 259.394531 121.15625 C 259.394531 122.714844 258.15625 123.921875 256.625 123.949219 L 253.269531 123.949219 Z M 253.269531 118.390625 "/>
<path fill-rule="nonzero" fill="rgb(100%, 100%, 100%)" fill-opacity="1" d="M 69.050781 30.683594 L 55.910156 43.820312 L 69.050781 56.964844 Z M 72.222656 30.683594 L 72.222656 56.964844 L 85.367188 43.820312 Z M 53.6875 46.085938 C 51.597656 48.40625 50.109375 51.054688 49.195312 53.855469 L 70.636719 75.300781 L 92.078125 53.855469 C 91.167969 51.054688 89.671875 48.40625 87.585938 46.089844 L 70.636719 63.039062 Z M 48.339844 57.480469 C 47.402344 64 49.453125 70.863281 54.484375 75.898438 L 69.050781 90.460938 L 69.050781 136.898438 L 70.636719 138.484375 L 72.222656 136.898438 L 72.222656 90.460938 L 86.785156 75.898438 C 91.824219 70.863281 93.871094 64.003906 92.933594 57.484375 L 70.636719 79.777344 Z M 20.558594 82.417969 L 20.558594 105.257812 C 20.558594 112.378906 23.957031 118.675781 29.230469 122.621094 L 29.230469 91.09375 L 60.761719 91.09375 C 56.8125 85.820312 50.515625 82.417969 43.394531 82.417969 Z M 97.878906 82.417969 C 90.757812 82.417969 84.457031 85.820312 80.511719 91.09375 L 112.046875 91.09375 L 112.046875 122.621094 C 117.316406 118.675781 120.71875 112.378906 120.71875 105.257812 L 120.71875 82.417969 Z M 78.550781 94.261719 C 77.21875 96.886719 76.398438 99.820312 76.234375 102.929688 L 100.203125 102.929688 L 100.203125 126.902344 C 103.320312 126.738281 106.25 125.921875 108.875 124.585938 L 108.875 94.261719 Z M 32.398438 94.261719 L 32.398438 124.585938 C 35.019531 125.921875 37.953125 126.738281 41.066406 126.902344 L 41.066406 102.929688 L 65.039062 102.929688 C 64.875 99.820312 64.054688 96.886719 62.722656 94.261719 Z M 46.476562 106.101562 L 65.070312 124.691406 L 65.070312 106.101562 Z M 76.203125 106.101562 L 76.203125 124.6875 L 94.792969 106.101562 Z M 97.035156 108.34375 L 78.445312 126.933594 L 97.035156 126.933594 Z M 44.242188 108.34375 L 44.242188 126.933594 L 62.828125 126.933594 Z M 44.242188 108.34375 "/>
</svg>
