<?xml version="1.0" encoding="UTF-8"?>
<svg xmlns="http://www.w3.org/2000/svg" xmlns:xlink="http://www.w3.org/1999/xlink" width="61.4341" height="61.4346" viewBox="0 0 61.4341 61.4346">
<defs>
<clipPath id="clip-0">
<path clip-rule="nonzero" d="M 0 0 L 60.875 0 L 60.875 60.875 L 0 60.875 Z M 0 0 "/>
</clipPath>
</defs>
<g clip-path="url(#clip-0)">
<path fill-rule="nonzero" fill="rgb(100%, 100%, 100%)" fill-opacity="1" d="M 30.433594 1.421875 C 14.4375 1.421875 1.421875 14.4375 1.421875 30.433594 C 1.421875 46.433594 14.4375 59.453125 30.433594 59.453125 C 46.433594 59.453125 59.453125 46.433594 59.453125 30.433594 C 59.453125 14.4375 46.433594 1.421875 30.433594 1.421875 M 30.433594 60.875 C 13.652344 60.875 0 47.21875 0 30.433594 C 0 13.652344 13.652344 0 30.433594 0 C 47.21875 0 60.871094 13.652344 60.871094 30.433594 C 60.871094 47.21875 47.21875 60.875 30.433594 60.875 "/>
</g>
<path fill-rule="nonzero" fill="rgb(100%, 100%, 100%)" fill-opacity="1" d="M 30.433594 8.988281 C 18.609375 8.988281 8.988281 18.609375 8.988281 30.4375 C 8.988281 42.261719 18.609375 51.882812 30.433594 51.882812 C 42.261719 51.882812 51.882812 42.261719 51.882812 30.4375 C 51.882812 18.609375 42.261719 8.988281 30.433594 8.988281 M 30.433594 53.296875 C 17.832031 53.296875 7.578125 43.042969 7.578125 30.4375 C 7.578125 17.832031 17.832031 7.574219 30.433594 7.574219 C 43.042969 7.574219 53.296875 17.832031 53.296875 30.4375 C 53.296875 43.042969 43.042969 53.296875 30.433594 53.296875 "/>
<path fill-rule="nonzero" fill="rgb(100%, 100%, 100%)" fill-opacity="1" d="M 17.320312 16.453125 L 17.316406 34.550781 C 17.316406 43.675781 28.503906 49.320312 30.441406 50.230469 C 32.371094 49.304688 43.535156 43.605469 43.535156 34.898438 L 43.53125 16.453125 Z M 30.445312 51.785156 L 30.160156 51.664062 C 29.578125 51.414062 15.894531 45.417969 15.894531 34.550781 L 15.898438 15.03125 L 44.953125 15.03125 L 44.957031 34.898438 C 44.957031 45.3125 31.308594 51.40625 30.726562 51.660156 Z M 30.445312 51.785156 "/>
<path fill-rule="nonzero" fill="rgb(100%, 100%, 100%)" fill-opacity="1" d="M 21.226562 18.574219 C 21.226562 20.375 21.226562 22.59375 21.230469 22.765625 C 21.242188 22.902344 21.429688 23.171875 21.925781 23.5 C 22.605469 23.957031 23.546875 24.527344 24.050781 24.828125 C 24.578125 24.53125 25.585938 23.957031 26.265625 23.503906 C 26.453125 23.378906 26.882812 23.0625 26.890625 22.808594 C 26.898438 22.59375 26.894531 20.371094 26.894531 18.574219 Z M 24.027344 26.460938 L 23.679688 26.257812 C 23.617188 26.222656 22.132812 25.351562 21.132812 24.683594 C 20.292969 24.121094 19.859375 23.523438 19.8125 22.859375 C 19.804688 22.746094 19.804688 21.066406 19.808594 17.863281 L 19.808594 17.152344 L 28.3125 17.152344 L 28.3125 17.863281 C 28.320312 21.070312 28.320312 22.75 28.308594 22.855469 C 28.292969 23.535156 27.882812 24.132812 27.058594 24.683594 C 26.050781 25.359375 24.445312 26.234375 24.378906 26.269531 Z M 24.027344 26.460938 "/>
<path fill-rule="nonzero" fill="rgb(100%, 100%, 100%)" fill-opacity="1" d="M 34.371094 18.539062 C 34.367188 20.339844 34.371094 22.554688 34.375 22.730469 C 34.386719 22.867188 34.574219 23.136719 35.070312 23.46875 C 35.746094 23.925781 36.691406 24.492188 37.191406 24.792969 C 37.71875 24.5 38.730469 23.925781 39.410156 23.46875 C 39.59375 23.34375 40.027344 23.027344 40.03125 22.777344 C 40.042969 22.5625 40.039062 20.339844 40.035156 18.539062 Z M 37.167969 26.429688 L 36.820312 26.226562 C 36.757812 26.1875 35.273438 25.316406 34.277344 24.648438 C 33.433594 24.085938 33.003906 23.488281 32.957031 22.824219 C 32.949219 22.71875 32.945312 21.035156 32.949219 17.828125 L 32.949219 17.117188 L 41.453125 17.117188 L 41.453125 17.828125 C 41.460938 21.035156 41.460938 22.71875 41.453125 22.824219 C 41.4375 23.496094 41.027344 24.097656 40.199219 24.648438 C 39.195312 25.324219 37.585938 26.199219 37.519531 26.238281 Z M 37.167969 26.429688 "/>
<path fill-rule="nonzero" fill="rgb(100%, 100%, 100%)" fill-opacity="1" d="M 44.445312 28.371094 L 16.007812 28.371094 L 16.007812 26.964844 L 44.445312 26.964844 Z M 44.445312 28.371094 "/>
<path fill-rule="nonzero" fill="rgb(100%, 100%, 100%)" fill-opacity="1" d="M 29 42.074219 C 29.722656 42.089844 30.15625 42.375 30.410156 42.636719 C 30.679688 42.371094 31.117188 42.070312 31.855469 42.074219 C 32.691406 42.074219 33.320312 42.128906 33.984375 42.1875 C 34.632812 42.25 35.308594 42.308594 36.296875 42.332031 C 36.703125 42.339844 37.074219 42.339844 37.367188 42.335938 L 37.367188 31.777344 C 37.265625 31.777344 37.175781 31.777344 37.070312 31.777344 C 36.707031 31.777344 36.28125 31.773438 35.769531 31.761719 C 35.226562 31.75 34.632812 31.6875 33.945312 31.613281 C 33.570312 31.574219 33.167969 31.53125 32.738281 31.492188 C 32.023438 31.414062 31.375 31.539062 31.371094 31.542969 C 31 31.628906 30.882812 31.78125 30.878906 31.785156 L 30.460938 31.5625 L 30.023438 31.816406 C 30.023438 31.816406 29.871094 31.632812 29.464844 31.539062 C 29.464844 31.539062 28.824219 31.414062 28.132812 31.488281 C 27.6875 31.53125 27.285156 31.574219 26.914062 31.613281 C 26.222656 31.6875 25.628906 31.75 25.082031 31.761719 C 24.4375 31.777344 23.925781 31.777344 23.507812 31.777344 L 23.488281 31.777344 L 23.484375 42.335938 C 23.78125 42.339844 24.152344 42.34375 24.558594 42.332031 C 25.546875 42.308594 26.222656 42.25 26.871094 42.1875 C 27.535156 42.128906 28.160156 42.074219 29 42.074219 M 30.398438 44.273438 C 29.917969 44.273438 29.644531 43.9375 29.5 43.753906 C 29.335938 43.554688 29.253906 43.496094 29 43.492188 C 28.226562 43.492188 27.65625 43.546875 27 43.605469 C 26.355469 43.664062 25.628906 43.730469 24.59375 43.753906 C 23.5625 43.777344 22.769531 43.734375 22.734375 43.734375 L 22.0625 43.695312 L 22.066406 30.375 L 22.761719 30.359375 C 22.972656 30.355469 23.21875 30.355469 23.507812 30.355469 C 23.921875 30.355469 24.417969 30.355469 25.050781 30.34375 C 25.535156 30.332031 26.105469 30.269531 26.761719 30.199219 C 27.140625 30.15625 27.550781 30.113281 27.988281 30.074219 C 28.90625 29.972656 29.738281 30.140625 29.773438 30.148438 C 30.027344 30.207031 30.242188 30.289062 30.425781 30.382812 C 30.601562 30.292969 30.8125 30.210938 31.0625 30.152344 C 31.113281 30.140625 31.945312 29.96875 32.878906 30.078125 C 33.304688 30.117188 33.714844 30.160156 34.097656 30.199219 C 34.753906 30.269531 35.320312 30.332031 35.800781 30.34375 C 36.433594 30.355469 36.9375 30.355469 37.34375 30.355469 C 37.632812 30.355469 37.878906 30.355469 38.09375 30.359375 L 38.789062 30.375 L 38.789062 43.695312 L 38.121094 43.734375 C 38.085938 43.734375 37.289062 43.777344 36.261719 43.753906 C 35.226562 43.730469 34.496094 43.664062 33.851562 43.605469 C 33.1875 43.542969 32.609375 43.488281 31.816406 43.492188 C 31.539062 43.496094 31.460938 43.582031 31.292969 43.777344 C 31.128906 43.960938 30.859375 44.273438 30.398438 44.273438 "/>
<path fill-rule="nonzero" fill="rgb(100%, 100%, 100%)" fill-opacity="1" d="M 27.550781 21.113281 L 20.519531 21.113281 L 20.519531 19.929688 L 27.550781 19.929688 Z M 27.550781 21.113281 "/>
<path fill-rule="nonzero" fill="rgb(100%, 100%, 100%)" fill-opacity="1" d="M 27.550781 21.234375 L 20.519531 21.234375 L 20.519531 19.8125 L 27.550781 19.8125 Z M 27.550781 21.234375 "/>
<path fill-rule="nonzero" fill="rgb(100%, 100%, 100%)" fill-opacity="1" d="M 30.96875 51.132812 L 29.789062 51.132812 L 29.789062 27.214844 L 30.96875 27.214844 Z M 30.96875 51.132812 "/>
<path fill-rule="nonzero" fill="rgb(100%, 100%, 100%)" fill-opacity="1" d="M 30.910156 51.132812 L 29.847656 51.132812 L 29.847656 27.214844 L 30.910156 27.214844 Z M 30.910156 51.132812 "/>
<path fill-rule="nonzero" fill="rgb(100%, 100%, 100%)" fill-opacity="1" d="M 40.195312 22.496094 L 37.074219 20.414062 L 34.207031 22.484375 L 33.515625 21.527344 L 37.046875 18.976562 L 40.851562 21.515625 Z M 40.195312 22.496094 "/>
<path fill-rule="nonzero" fill="rgb(100%, 100%, 100%)" fill-opacity="1" d="M 40.226562 22.597656 L 37.171875 20.5625 L 34.375 22.582031 L 33.542969 21.429688 L 37.140625 18.832031 L 41.015625 21.414062 Z M 40.226562 22.597656 "/>
<path fill-rule="nonzero" fill="rgb(100%, 100%, 100%)" fill-opacity="1" d="M 36.03125 33.914062 L 34.242188 33.867188 C 33.957031 33.863281 33.628906 33.828125 33.253906 33.785156 L 32.648438 33.722656 C 32.53125 33.710938 32.429688 33.710938 32.335938 33.714844 L 32.308594 32.964844 C 32.4375 32.960938 32.578125 32.964844 32.722656 32.980469 L 33.332031 33.042969 C 33.6875 33.082031 33.992188 33.113281 34.261719 33.121094 L 36.050781 33.167969 Z M 36.03125 33.914062 "/>
<path fill-rule="nonzero" fill="rgb(100%, 100%, 100%)" fill-opacity="1" d="M 36.035156 36.195312 L 34.246094 36.148438 C 33.960938 36.140625 33.640625 36.109375 33.269531 36.070312 C 33.078125 36.050781 32.871094 36.027344 32.648438 36.007812 C 32.535156 35.996094 32.429688 35.988281 32.335938 35.996094 L 32.308594 35.246094 C 32.433594 35.242188 32.574219 35.246094 32.722656 35.261719 C 32.941406 35.28125 33.152344 35.304688 33.347656 35.324219 C 33.695312 35.363281 33.996094 35.394531 34.261719 35.402344 L 36.050781 35.445312 Z M 36.035156 36.195312 "/>
<path fill-rule="nonzero" fill="rgb(100%, 100%, 100%)" fill-opacity="1" d="M 36.035156 38.476562 C 35.890625 38.472656 35.554688 38.464844 35.1875 38.453125 L 34.242188 38.429688 C 33.96875 38.425781 33.652344 38.390625 33.285156 38.351562 C 33.089844 38.332031 32.878906 38.308594 32.648438 38.289062 C 32.535156 38.277344 32.429688 38.269531 32.335938 38.277344 L 32.308594 37.527344 C 32.433594 37.523438 32.578125 37.527344 32.722656 37.546875 C 32.949219 37.5625 33.164062 37.585938 33.363281 37.609375 C 33.703125 37.644531 34 37.675781 34.257812 37.683594 L 35.207031 37.707031 C 35.570312 37.714844 35.90625 37.726562 36.046875 37.726562 Z M 36.035156 38.476562 "/>
<path fill-rule="nonzero" fill="rgb(100%, 100%, 100%)" fill-opacity="1" d="M 36.035156 40.757812 L 34.242188 40.710938 C 33.957031 40.703125 33.636719 40.667969 33.257812 40.628906 L 32.648438 40.570312 C 32.535156 40.554688 32.429688 40.550781 32.335938 40.554688 L 32.308594 39.808594 C 32.433594 39.808594 32.578125 39.808594 32.722656 39.824219 C 32.9375 39.84375 33.144531 39.867188 33.339844 39.886719 C 33.691406 39.925781 33.996094 39.957031 34.261719 39.964844 L 36.050781 40.011719 Z M 36.035156 40.757812 "/>
<path fill-rule="nonzero" fill="rgb(100%, 100%, 100%)" fill-opacity="1" d="M 24.785156 33.898438 L 24.769531 33.148438 C 25.042969 33.144531 25.996094 33.117188 26.558594 33.101562 C 26.832031 33.097656 27.140625 33.0625 27.5 33.027344 L 28.101562 32.964844 C 28.230469 32.949219 28.363281 32.945312 28.484375 32.945312 L 28.472656 33.695312 C 28.382812 33.695312 28.28125 33.695312 28.179688 33.707031 L 27.578125 33.769531 C 27.195312 33.808594 26.863281 33.84375 26.574219 33.851562 C 26.015625 33.867188 25.058594 33.890625 24.785156 33.898438 "/>
<path fill-rule="nonzero" fill="rgb(100%, 100%, 100%)" fill-opacity="1" d="M 24.785156 36.179688 L 24.769531 35.429688 L 26.558594 35.382812 C 26.828125 35.378906 27.132812 35.34375 27.488281 35.304688 L 28.101562 35.242188 C 28.238281 35.230469 28.371094 35.226562 28.492188 35.230469 L 28.464844 35.980469 C 28.371094 35.972656 28.269531 35.980469 28.167969 35.988281 L 27.570312 36.046875 C 27.191406 36.089844 26.863281 36.125 26.578125 36.132812 Z M 24.785156 36.179688 "/>
<path fill-rule="nonzero" fill="rgb(100%, 100%, 100%)" fill-opacity="1" d="M 24.78125 38.457031 L 24.773438 37.710938 C 25.042969 37.703125 25.996094 37.679688 26.558594 37.664062 C 26.824219 37.660156 27.121094 37.625 27.460938 37.589844 C 27.660156 37.570312 27.875 37.546875 28.105469 37.527344 C 28.230469 37.511719 28.367188 37.507812 28.488281 37.511719 L 28.46875 38.257812 C 28.378906 38.257812 28.28125 38.257812 28.179688 38.269531 C 27.945312 38.289062 27.734375 38.3125 27.542969 38.335938 C 27.171875 38.371094 26.855469 38.40625 26.574219 38.410156 C 26.011719 38.425781 25.054688 38.453125 24.78125 38.457031 "/>
<path fill-rule="nonzero" fill="rgb(100%, 100%, 100%)" fill-opacity="1" d="M 24.78125 40.742188 L 24.773438 39.992188 C 24.988281 39.992188 25.636719 39.972656 26.175781 39.957031 L 26.558594 39.945312 C 26.828125 39.941406 27.136719 39.90625 27.488281 39.867188 L 28.101562 39.804688 C 28.226562 39.792969 28.359375 39.789062 28.484375 39.789062 L 28.46875 40.539062 C 28.378906 40.539062 28.277344 40.535156 28.179688 40.546875 L 27.570312 40.613281 C 27.191406 40.652344 26.863281 40.6875 26.578125 40.691406 L 26.195312 40.707031 C 25.652344 40.71875 25 40.738281 24.78125 40.742188 "/>
<path fill-rule="nonzero" fill="rgb(100%, 100%, 100%)" fill-opacity="1" d="M 20.667969 32.269531 L 22.214844 32.269531 L 22.214844 33.96875 L 20.667969 33.96875 Z M 20.667969 32.269531 "/>
<path fill-rule="nonzero" fill="rgb(100%, 100%, 100%)" fill-opacity="1" d="M 20.667969 36.203125 L 22.300781 36.203125 L 22.300781 37.902344 L 20.667969 37.902344 Z M 20.667969 36.203125 "/>
<path fill-rule="nonzero" fill="rgb(100%, 100%, 100%)" fill-opacity="1" d="M 20.667969 39.71875 L 22.214844 39.71875 L 22.214844 41.414062 L 20.667969 41.414062 Z M 20.667969 39.71875 "/>
<path fill-rule="nonzero" fill="rgb(100%, 100%, 100%)" fill-opacity="1" d="M 38.488281 32.605469 L 40.035156 32.605469 L 40.035156 34.304688 L 38.488281 34.304688 Z M 38.488281 32.605469 "/>
<path fill-rule="nonzero" fill="rgb(100%, 100%, 100%)" fill-opacity="1" d="M 38.488281 36.535156 L 40.117188 36.535156 L 40.117188 38.238281 L 38.488281 38.238281 Z M 38.488281 36.535156 "/>
<path fill-rule="nonzero" fill="rgb(100%, 100%, 100%)" fill-opacity="1" d="M 38.488281 40.050781 L 40.035156 40.050781 L 40.035156 41.75 L 38.488281 41.75 Z M 38.488281 40.050781 "/>
<path fill-rule="nonzero" fill="rgb(100%, 100%, 100%)" fill-opacity="1" d="M 6.542969 27.511719 C 6.597656 27.808594 6.636719 28.132812 6.617188 28.441406 C 6.535156 29.746094 5.8125 30.613281 4.429688 30.523438 C 3.03125 30.4375 2.296875 29.542969 2.382812 28.171875 C 2.402344 27.90625 2.476562 27.558594 2.609375 27.269531 L 3.300781 27.371094 C 3.101562 27.667969 3.042969 27.941406 3.027344 28.230469 C 2.972656 29.0625 3.585938 29.621094 4.425781 29.675781 C 5.257812 29.730469 5.917969 29.257812 5.96875 28.398438 C 5.992188 28.082031 5.941406 27.699219 5.855469 27.503906 Z M 6.542969 27.511719 "/>
<path fill-rule="nonzero" fill="rgb(100%, 100%, 100%)" fill-opacity="1" d="M 6.800781 24.027344 C 7.027344 23.230469 6.390625 22.730469 5.679688 22.53125 C 4.984375 22.332031 4.183594 22.445312 3.960938 23.222656 C 3.742188 23.996094 4.363281 24.515625 5.058594 24.710938 C 5.769531 24.914062 6.570312 24.824219 6.800781 24.027344 M 3.34375 23.042969 C 3.6875 21.824219 4.71875 21.378906 5.910156 21.714844 C 7.101562 22.054688 7.769531 22.976562 7.417969 24.203125 C 7.066406 25.453125 6.035156 25.871094 4.828125 25.53125 C 3.617188 25.183594 2.988281 24.28125 3.34375 23.042969 "/>
<path fill-rule="nonzero" fill="rgb(100%, 100%, 100%)" fill-opacity="1" d="M 6.894531 18.910156 L 7.023438 18.675781 C 7.210938 18.324219 7.375 17.890625 6.921875 17.652344 C 6.484375 17.417969 6.238281 17.800781 6.046875 18.15625 L 5.921875 18.390625 Z M 4.972656 18.804688 L 5.382812 18.03125 C 5.789062 17.265625 6.25 16.335938 7.257812 16.871094 C 7.683594 17.097656 7.886719 17.570312 7.703125 18.054688 L 7.714844 18.0625 C 7.832031 17.875 8.089844 17.867188 8.289062 17.882812 L 10.007812 18.0625 L 9.585938 18.859375 L 8.226562 18.6875 C 7.902344 18.648438 7.75 18.683594 7.589844 18.984375 L 7.46875 19.214844 L 8.96875 20.015625 L 8.589844 20.730469 Z M 4.972656 18.804688 "/>
<path fill-rule="nonzero" fill="rgb(100%, 100%, 100%)" fill-opacity="1" d="M 7.742188 14.121094 L 8.378906 13.355469 L 11.722656 14.125 L 11.730469 14.117188 L 9.371094 12.160156 L 9.863281 11.5625 L 13.019531 14.179688 L 12.386719 14.941406 L 9.039062 14.175781 L 9.035156 14.183594 L 11.394531 16.140625 L 10.898438 16.738281 Z M 7.742188 14.121094 "/>
<path fill-rule="nonzero" fill="rgb(100%, 100%, 100%)" fill-opacity="1" d="M 11.847656 9.667969 L 13.699219 8.164062 L 14.105469 8.664062 L 12.882812 9.65625 L 13.519531 10.441406 L 14.640625 9.527344 L 15.046875 10.03125 L 13.929688 10.941406 L 14.65625 11.835938 L 15.886719 10.832031 L 16.292969 11.332031 L 14.4375 12.847656 Z M 11.847656 9.667969 "/>
<path fill-rule="nonzero" fill="rgb(100%, 100%, 100%)" fill-opacity="1" d="M 15.871094 6.710938 L 16.578125 6.3125 L 18.273438 9.320312 L 19.640625 8.550781 L 19.957031 9.117188 L 17.878906 10.28125 Z M 15.871094 6.710938 "/>
<path fill-rule="nonzero" fill="rgb(100%, 100%, 100%)" fill-opacity="1" d="M 20.035156 4.625 L 20.796875 4.347656 L 21.972656 7.59375 L 23.445312 7.0625 L 23.667969 7.667969 L 21.429688 8.476562 Z M 20.035156 4.625 "/>
<path fill-rule="nonzero" fill="rgb(100%, 100%, 100%)" fill-opacity="1" d="M 26.570312 2.84375 L 27.378906 2.773438 L 27.570312 5.136719 C 27.628906 5.832031 27.886719 6.269531 28.507812 6.21875 C 29.125 6.167969 29.304688 5.691406 29.246094 4.996094 L 29.050781 2.636719 L 29.859375 2.570312 L 30.074219 5.179688 C 30.167969 6.273438 29.59375 6.777344 28.558594 6.863281 C 27.527344 6.949219 26.875 6.546875 26.785156 5.453125 Z M 26.570312 2.84375 "/>
<path fill-rule="nonzero" fill="rgb(100%, 100%, 100%)" fill-opacity="1" d="M 32.644531 2.636719 L 33.632812 2.769531 L 34.746094 6.015625 L 34.757812 6.015625 L 35.167969 2.976562 L 35.9375 3.082031 L 35.390625 7.140625 L 34.410156 7.011719 L 33.285156 3.765625 L 33.273438 3.765625 L 32.867188 6.800781 L 32.097656 6.699219 Z M 32.644531 2.636719 "/>
<path fill-rule="nonzero" fill="rgb(100%, 100%, 100%)" fill-opacity="1" d="M 38.453125 3.75 L 39.226562 3.992188 L 38 7.902344 L 37.226562 7.660156 Z M 38.453125 3.75 "/>
<path fill-rule="nonzero" fill="rgb(100%, 100%, 100%)" fill-opacity="1" d="M 41.335938 4.71875 L 42.113281 5.113281 L 41.585938 8.453125 L 41.597656 8.457031 L 43.964844 6.046875 L 44.683594 6.410156 L 41.617188 9.457031 L 40.730469 9.007812 Z M 41.335938 4.71875 "/>
<path fill-rule="nonzero" fill="rgb(100%, 100%, 100%)" fill-opacity="1" d="M 46.652344 7.742188 L 48.53125 9.214844 L 48.136719 9.722656 L 46.894531 8.753906 L 46.269531 9.550781 L 47.40625 10.4375 L 47.007812 10.949219 L 45.875 10.058594 L 45.164062 10.964844 L 46.414062 11.941406 L 46.015625 12.453125 L 44.128906 10.976562 Z M 46.652344 7.742188 "/>
<path fill-rule="nonzero" fill="rgb(100%, 100%, 100%)" fill-opacity="1" d="M 49.644531 12.75 L 49.820312 12.953125 C 50.082031 13.25 50.429688 13.558594 50.816406 13.21875 C 51.1875 12.894531 50.917969 12.527344 50.648438 12.222656 L 50.472656 12.023438 Z M 50.425781 10.988281 L 51.003906 11.644531 C 51.574219 12.296875 52.28125 13.058594 51.425781 13.808594 C 51.0625 14.125 50.554688 14.152344 50.160156 13.8125 L 50.148438 13.816406 C 50.285156 13.996094 50.199219 14.238281 50.117188 14.417969 L 49.339844 15.964844 L 48.742188 15.285156 L 49.382812 14.074219 C 49.535156 13.785156 49.558594 13.628906 49.332031 13.375 L 49.160156 13.175781 L 47.878906 14.300781 L 47.34375 13.691406 Z M 50.425781 10.988281 "/>
<path fill-rule="nonzero" fill="rgb(100%, 100%, 100%)" fill-opacity="1" d="M 54.253906 17.488281 C 54.21875 17.210938 54.128906 16.933594 53.984375 16.691406 C 53.84375 16.453125 53.554688 16.207031 53.171875 16.429688 C 52.558594 16.792969 53.71875 18.167969 52.539062 18.867188 C 51.761719 19.324219 51.113281 18.894531 50.699219 18.191406 C 50.472656 17.8125 50.421875 17.613281 50.304688 17.21875 L 50.980469 16.90625 C 50.992188 17.222656 51.070312 17.550781 51.226562 17.820312 C 51.386719 18.085938 51.730469 18.359375 52.050781 18.167969 C 52.722656 17.773438 51.542969 16.414062 52.710938 15.722656 C 53.5 15.257812 54.144531 15.691406 54.507812 16.300781 C 54.683594 16.601562 54.808594 16.902344 54.871094 17.207031 Z M 54.253906 17.488281 "/>
<path fill-rule="nonzero" fill="rgb(100%, 100%, 100%)" fill-opacity="1" d="M 56.050781 19.527344 L 56.359375 20.277344 L 52.558594 21.828125 L 52.253906 21.078125 Z M 56.050781 19.527344 "/>
<path fill-rule="nonzero" fill="rgb(100%, 100%, 100%)" fill-opacity="1" d="M 56.753906 23.585938 L 56.476562 22.460938 L 57.105469 22.308594 L 57.851562 25.347656 L 57.226562 25.5 L 56.949219 24.375 L 53.597656 25.199219 L 53.402344 24.410156 Z M 56.753906 23.585938 "/>
<path fill-rule="nonzero" fill="rgb(100%, 100%, 100%)" fill-opacity="1" d="M 55.773438 28.867188 L 58.164062 27.257812 L 58.21875 28.203125 L 56.550781 29.253906 L 58.324219 30.132812 L 58.371094 30.988281 L 55.816406 29.679688 L 54.195312 29.769531 L 54.152344 28.957031 Z M 55.773438 28.867188 "/>
<path fill-rule="nonzero" fill="rgb(100%, 100%, 100%)" fill-opacity="1" d="M 7.183594 35.957031 L 7.808594 38.136719 L 7.191406 38.316406 L 6.785156 36.921875 L 5.816406 37.203125 L 6.199219 38.527344 L 5.578125 38.707031 L 5.195312 37.378906 L 3.46875 37.878906 L 3.242188 37.089844 Z M 7.183594 35.957031 "/>
<path fill-rule="nonzero" fill="rgb(100%, 100%, 100%)" fill-opacity="1" d="M 5.875 42.570312 C 6.246094 43.324219 7.050781 43.273438 7.714844 42.945312 C 8.363281 42.628906 8.882812 42 8.523438 41.269531 C 8.164062 40.542969 7.351562 40.566406 6.703125 40.886719 C 6.039062 41.210938 5.507812 41.816406 5.875 42.570312 M 9.101562 40.984375 C 9.667969 42.136719 9.207031 43.167969 8.089844 43.710938 C 6.980469 44.257812 5.867188 44.015625 5.296875 42.851562 C 4.71875 41.679688 5.199219 40.671875 6.328125 40.117188 C 7.457031 39.5625 8.527344 39.820312 9.101562 40.984375 "/>
<path fill-rule="nonzero" fill="rgb(100%, 100%, 100%)" fill-opacity="1" d="M 10.847656 44.210938 L 11.359375 44.851562 L 9.503906 46.320312 C 8.957031 46.753906 8.738281 47.214844 9.128906 47.707031 C 9.515625 48.199219 10.011719 48.089844 10.558594 47.652344 L 12.414062 46.179688 L 12.921875 46.820312 L 10.871094 48.449219 C 10.011719 49.132812 9.273438 48.929688 8.617188 48.113281 C 7.96875 47.289062 7.9375 46.519531 8.796875 45.835938 Z M 10.847656 44.210938 "/>
<path fill-rule="nonzero" fill="rgb(100%, 100%, 100%)" fill-opacity="1" d="M 14.210938 48.132812 L 14.992188 48.773438 L 14.253906 52.128906 L 14.261719 52.132812 L 16.203125 49.765625 L 16.8125 50.261719 L 14.214844 53.433594 L 13.441406 52.800781 L 14.171875 49.433594 L 14.160156 49.429688 L 12.222656 51.800781 L 11.613281 51.304688 Z M 14.210938 48.132812 "/>
<path fill-rule="nonzero" fill="rgb(100%, 100%, 100%)" fill-opacity="1" d="M 17.550781 54.722656 L 17.957031 54.929688 C 18.570312 55.234375 19.390625 55.074219 19.789062 54.277344 C 20.191406 53.480469 19.832031 52.726562 19.21875 52.417969 L 18.808594 52.210938 Z M 18.367188 51.269531 L 19.367188 51.769531 C 20.484375 52.332031 21.285156 53.207031 20.554688 54.660156 C 19.824219 56.113281 18.644531 55.996094 17.527344 55.433594 L 16.527344 54.933594 Z M 18.367188 51.269531 "/>
<path fill-rule="nonzero" fill="rgb(100%, 100%, 100%)" fill-opacity="1" d="M 23.109375 53.375 L 25.4375 54 L 25.269531 54.621094 L 23.734375 54.210938 L 23.472656 55.1875 L 24.882812 55.5625 L 24.714844 56.1875 L 23.304688 55.8125 L 23.011719 56.921875 L 24.5625 57.335938 L 24.394531 57.960938 L 22.054688 57.335938 Z M 23.109375 53.375 "/>
<path fill-rule="nonzero" fill="rgb(100%, 100%, 100%)" fill-opacity="1" d="M 27.863281 57.816406 L 28.320312 57.839844 C 29.003906 57.878906 29.691406 57.40625 29.742188 56.515625 C 29.792969 55.625 29.160156 55.078125 28.480469 55.039062 L 28.023438 55.015625 Z M 27.242188 54.320312 L 28.355469 54.382812 C 29.609375 54.453125 30.6875 54.941406 30.597656 56.5625 C 30.503906 58.1875 29.375 58.546875 28.125 58.480469 L 27.007812 58.414062 Z M 27.242188 54.320312 "/>
<path fill-rule="nonzero" fill="rgb(100%, 100%, 100%)" fill-opacity="1" d="M 35.375 54.734375 L 35.363281 54.738281 L 35.140625 56.511719 L 36.308594 56.265625 Z M 34.761719 54.023438 L 35.664062 53.832031 L 38.097656 57.5 L 37.207031 57.691406 L 36.667969 56.847656 L 35.046875 57.195312 L 34.894531 58.1875 L 34.066406 58.367188 Z M 34.761719 54.023438 "/>
<path fill-rule="nonzero" fill="rgb(100%, 100%, 100%)" fill-opacity="1" d="M 39.007812 56.269531 L 39.777344 55.988281 L 40.058594 56.761719 L 39.289062 57.039062 Z M 39.007812 56.269531 "/>
<path fill-rule="nonzero" fill="rgb(100%, 100%, 100%)" fill-opacity="1" d="M 42.417969 55.027344 L 42.816406 54.8125 C 43.421875 54.484375 43.757812 53.722656 43.332031 52.9375 C 42.90625 52.152344 42.082031 52.015625 41.480469 52.347656 L 41.078125 52.5625 Z M 40.050781 52.382812 L 41.03125 51.851562 C 42.136719 51.25 43.308594 51.097656 44.085938 52.53125 C 44.859375 53.960938 44.085938 54.859375 42.984375 55.457031 L 42.003906 55.988281 Z M 40.050781 52.382812 "/>
<path fill-rule="nonzero" fill="rgb(100%, 100%, 100%)" fill-opacity="1" d="M 45.273438 53.144531 L 45.945312 52.675781 L 46.414062 53.351562 L 45.742188 53.820312 Z M 45.273438 53.144531 "/>
<path fill-rule="nonzero" fill="rgb(100%, 100%, 100%)" fill-opacity="1" d="M 46.964844 47.535156 L 47.476562 47.027344 L 50.359375 49.945312 L 49.773438 50.523438 L 47.550781 48.269531 L 47.453125 49.15625 L 46.789062 49.0625 Z M 46.964844 47.535156 "/>
<path fill-rule="nonzero" fill="rgb(100%, 100%, 100%)" fill-opacity="1" d="M 52.328125 46.757812 C 52.523438 46.492188 52.511719 46.164062 52.238281 45.960938 C 51.910156 45.722656 51.550781 45.882812 51.257812 46.089844 C 51.199219 46.410156 51.214844 46.703125 51.492188 46.910156 C 51.765625 47.113281 52.132812 47.019531 52.328125 46.757812 M 50.828125 45.578125 C 50.898438 45.34375 50.824219 45.007812 50.621094 44.859375 C 50.375 44.675781 50.089844 44.707031 49.90625 44.957031 C 49.730469 45.195312 49.683594 45.53125 49.949219 45.726562 C 50.234375 45.9375 50.578125 45.738281 50.828125 45.578125 M 50.632812 46.363281 C 50.242188 46.582031 49.808594 46.597656 49.464844 46.34375 C 48.875 45.910156 48.925781 45.253906 49.367188 44.65625 C 49.796875 44.078125 50.421875 43.734375 50.972656 44.140625 C 51.273438 44.363281 51.484375 44.800781 51.359375 45.269531 L 51.363281 45.273438 C 51.886719 44.992188 52.316406 45.003906 52.695312 45.28125 C 53.363281 45.773438 53.300781 46.472656 52.820312 47.121094 C 52.347656 47.761719 51.6875 48.074219 51.015625 47.574219 C 50.644531 47.304688 50.546875 46.90625 50.640625 46.371094 Z M 50.632812 46.363281 "/>
<path fill-rule="nonzero" fill="rgb(100%, 100%, 100%)" fill-opacity="1" d="M 53.976562 42.773438 C 54.324219 42.945312 54.699219 42.949219 54.878906 42.585938 C 55.050781 42.25 54.792969 41.941406 54.464844 41.777344 C 54.109375 41.601562 53.707031 41.582031 53.527344 41.933594 C 53.351562 42.289062 53.609375 42.585938 53.976562 42.773438 M 52.828125 40.394531 C 52.644531 40.546875 52.484375 40.710938 52.359375 40.957031 C 52.046875 41.589844 52.527344 42.101562 53.0625 42.394531 L 53.078125 42.386719 C 52.914062 42.089844 52.910156 41.808594 53.0625 41.5 C 53.410156 40.808594 54.039062 40.652344 54.714844 40.988281 C 55.511719 41.386719 55.839844 42.035156 55.429688 42.859375 C 54.921875 43.878906 53.960938 43.683594 53.101562 43.25 C 52.105469 42.753906 51.175781 41.890625 51.765625 40.707031 C 51.898438 40.441406 52.066406 40.207031 52.28125 40 Z M 52.828125 40.394531 "/>
<path fill-rule="nonzero" fill="rgb(100%, 100%, 100%)" fill-opacity="1" d="M 54.195312 36.023438 L 53.746094 37.535156 L 54.582031 37.800781 C 54.589844 37.703125 54.601562 37.582031 54.648438 37.433594 C 54.8125 36.878906 55.285156 36.246094 56.300781 36.550781 C 57.039062 36.769531 57.480469 37.460938 57.179688 38.472656 C 57.09375 38.777344 56.933594 39.113281 56.796875 39.355469 L 56.097656 39.125 C 56.234375 38.960938 56.433594 38.726562 56.53125 38.386719 C 56.65625 37.972656 56.59375 37.488281 56.089844 37.339844 C 55.582031 37.191406 55.277344 37.585938 55.144531 38.035156 C 55.070312 38.277344 55.035156 38.515625 55.039062 38.769531 L 52.941406 38.101562 L 53.609375 35.851562 Z M 54.195312 36.023438 "/>
</svg>
